<svg xmlns="http://www.w3.org/2000/svg" viewBox="0 0 24 24" id="symfony"><path d="M12 24C5.383 24 0 18.617 0 12S5.383 0 12 0s12 5.383 12 12-5.383 12-12 12zm0-23C5.935 1 1 5.935 1 12s4.935 11 11 11 11-4.935 11-11S18.065 1 12 1z"></path><path d="M7.882 21.17c-.73 0-1.371-.225-1.813-.638a1.846 1.846 0 0 1-.592-1.291c-.036-1.136.939-1.777 1.658-1.804.455.011.84.134 1.14.415.292.272.46.644.473 1.043.008.206-.022.377-.073.518l.062-.044c.996-.831 1.428-2.347 2.015-5.428l.121-.733c.188-.943.394-1.979.694-3.021-.64-.72-1.104-1.077-1.986-1.318-.616-.168-.852.001-1.017.207-.216.273-.126.62.076.82l.629.696c.835.961 1.312 1.771 1.129 2.865-.136.803-.646 1.529-1.399 1.994-.918.565-2.103.687-3.25.332-1.13-.347-1.682-.948-1.944-1.393-.315-.529-.407-1.158-.246-1.681.244-.786.951-1.146 1.75-.896.789.243 1.093 1.151.882 1.847a2.993 2.993 0 0 1-.12.308 1.623 1.623 0 0 1-.118.207l-.031.05c.066.05.192.121.366.174.525.164.999-.111 1.107-.467.068-.22.001-.417-.219-.643l-.745-.799c-.644-.714-1.196-1.894-.831-3.086a2.997 2.997 0 0 1 1.032-1.502 3.6 3.6 0 0 1 3.266-.596c1.009.289 1.674.932 2.131 1.59.385-.946 1.001-2.252 1.764-3.139.963-1.129 2.184-1.775 3.438-1.817 1.521-.04 2.645.719 2.687 1.867.016.618-.357 1.603-1.429 1.637-.437.001-.792-.115-1.062-.366a1.321 1.321 0 0 1-.412-.932 1.37 1.37 0 0 1 .199-.753c-1.397.066-1.829 2.279-2.177 4.06l-.188 1.041c.977.106 1.276-.38 1.366-.614.05-.129.05-.129-.039-.264-.104-.157-.276-.42-.191-.81a1.352 1.352 0 0 1 1.283-1.047c.342-.014.606.115.836.344.271.271.428.675.419 1.078-.013.659-.531 1.583-1.206 2.147-.603.505-1.281.712-1.97.604a3.33 3.33 0 0 1-.715-.233l-.254 1.402c-.364 1.704-.846 3.954-2.546 5.942-1.502 1.786-3.042 2.098-3.827 2.124a2.524 2.524 0 0 1-.123.003zm-.688-2.733-.025.001c-.209.008-.71.24-.692.771.008.229.1.43.274.593.104.097.231.176.377.235a.758.758 0 0 1-.008-.082c-.014-.424.287-.646.415-.74.02-.014.082-.059.103-.07.098-.053.115-.062.109-.214a.496.496 0 0 0-.155-.349.567.567 0 0 0-.398-.145zM12.6 10.22c-.328 1.081-.548 2.185-.742 3.159l-.122.737c-.438 2.306-.82 4.031-1.628 5.208.312-.237.638-.54.963-.927 1.538-1.799 1.988-3.905 2.317-5.443l.39-2.146v-.002l.276-1.535c.212-1.086.466-2.384.991-3.367a4.9 4.9 0 0 0-.492.504c-.999 1.16-1.744 3.2-1.953 3.812zM7.894 8.324a2.63 2.63 0 0 0-.647.367 2 2 0 0 0-.689 1.004c-.313 1.024.454 1.946.611 2.12l.731.786c.598.613.575 1.224.45 1.627a1.637 1.637 0 0 1-.329.594c.158-.059.31-.132.453-.221.509-.313.851-.79.938-1.309.106-.634-.118-1.147-.891-2.036l-.605-.67a1.61 1.61 0 0 1-.022-2.262zm-2.007 5.967zm-1.075-1.557c-.193 0-.254.132-.298.271-.061.197-.054.532.15.875.062.105.14.205.229.298a.91.91 0 0 1 .037-.181c.044-.149.122-.271.179-.359.019-.03.039-.059.054-.09.032-.069.05-.122.063-.16.074-.239-.009-.556-.213-.619a.707.707 0 0 0-.201-.035zm12.157-3.713c.012 0 .028.021.043.044.104.158.281.427.225.841.185-.299.284-.583.287-.747a.493.493 0 0 0-.126-.349c-.054-.055-.096-.052-.104-.052a.35.35 0 0 0-.333.27c.002-.005.005-.007.008-.007zm1.353-3.911a.865.865 0 0 1 .008.089c.006.223-.062.351-.154.528l-.049.094c-.09.131-.115.212-.112.291.003.1.034.179.093.232.074.069.201.12.346.099h.004c.463-.014.46-.599.46-.605-.013-.315-.234-.569-.596-.728z"></path></svg>